<mxfile host="app.diagrams.net" agent="Mozilla/5.0 (Windows NT 10.0; Win64; x64) AppleWebKit/537.36 (KHTML, like Gecko) Chrome/127.0.0.0 Safari/537.36" version="24.7.7">
  <diagram name="Page-1" id="8-Ea8Qscm6W-jIIB2Thf">
    <mxGraphModel dx="846" dy="565" grid="0" gridSize="10" guides="1" tooltips="1" connect="1" arrows="1" fold="1" page="1" pageScale="1" pageWidth="850" pageHeight="1100" math="0" shadow="0">
      <root>
        <mxCell id="0" />
        <mxCell id="1" parent="0" />
        <mxCell id="_HtNcHazp8jYqS6eAKl7-18" style="edgeStyle=orthogonalEdgeStyle;rounded=0;orthogonalLoop=1;jettySize=auto;html=1;exitX=0;exitY=0.06;exitDx=0;exitDy=0;exitPerimeter=0;" edge="1" parent="1" source="_HtNcHazp8jYqS6eAKl7-1">
          <mxGeometry relative="1" as="geometry">
            <mxPoint x="109" y="258" as="targetPoint" />
          </mxGeometry>
        </mxCell>
        <mxCell id="_HtNcHazp8jYqS6eAKl7-19" style="edgeStyle=orthogonalEdgeStyle;rounded=0;orthogonalLoop=1;jettySize=auto;html=1;exitX=0;exitY=0.13;exitDx=0;exitDy=0;exitPerimeter=0;" edge="1" parent="1" source="_HtNcHazp8jYqS6eAKl7-1">
          <mxGeometry relative="1" as="geometry">
            <mxPoint x="109" y="277" as="targetPoint" />
          </mxGeometry>
        </mxCell>
        <mxCell id="_HtNcHazp8jYqS6eAKl7-20" style="edgeStyle=orthogonalEdgeStyle;rounded=0;orthogonalLoop=1;jettySize=auto;html=1;exitX=0;exitY=0.19;exitDx=0;exitDy=0;exitPerimeter=0;" edge="1" parent="1" source="_HtNcHazp8jYqS6eAKl7-1">
          <mxGeometry relative="1" as="geometry">
            <mxPoint x="109" y="293" as="targetPoint" />
          </mxGeometry>
        </mxCell>
        <mxCell id="_HtNcHazp8jYqS6eAKl7-21" style="edgeStyle=orthogonalEdgeStyle;rounded=0;orthogonalLoop=1;jettySize=auto;html=1;exitX=0;exitY=0.25;exitDx=0;exitDy=0;exitPerimeter=0;" edge="1" parent="1" source="_HtNcHazp8jYqS6eAKl7-1">
          <mxGeometry relative="1" as="geometry">
            <mxPoint x="109" y="310" as="targetPoint" />
          </mxGeometry>
        </mxCell>
        <mxCell id="_HtNcHazp8jYqS6eAKl7-22" style="edgeStyle=orthogonalEdgeStyle;rounded=0;orthogonalLoop=1;jettySize=auto;html=1;exitX=0;exitY=0.31;exitDx=0;exitDy=0;exitPerimeter=0;" edge="1" parent="1" source="_HtNcHazp8jYqS6eAKl7-1">
          <mxGeometry relative="1" as="geometry">
            <mxPoint x="109" y="326" as="targetPoint" />
          </mxGeometry>
        </mxCell>
        <mxCell id="_HtNcHazp8jYqS6eAKl7-23" style="edgeStyle=orthogonalEdgeStyle;rounded=0;orthogonalLoop=1;jettySize=auto;html=1;exitX=0;exitY=0.38;exitDx=0;exitDy=0;exitPerimeter=0;" edge="1" parent="1" source="_HtNcHazp8jYqS6eAKl7-1">
          <mxGeometry relative="1" as="geometry">
            <mxPoint x="109" y="345" as="targetPoint" />
          </mxGeometry>
        </mxCell>
        <mxCell id="_HtNcHazp8jYqS6eAKl7-24" style="edgeStyle=orthogonalEdgeStyle;rounded=0;orthogonalLoop=1;jettySize=auto;html=1;exitX=0;exitY=0.44;exitDx=0;exitDy=0;exitPerimeter=0;" edge="1" parent="1" source="_HtNcHazp8jYqS6eAKl7-1">
          <mxGeometry relative="1" as="geometry">
            <mxPoint x="109" y="361" as="targetPoint" />
          </mxGeometry>
        </mxCell>
        <mxCell id="_HtNcHazp8jYqS6eAKl7-26" style="edgeStyle=orthogonalEdgeStyle;rounded=0;orthogonalLoop=1;jettySize=auto;html=1;exitX=0;exitY=0.5;exitDx=0;exitDy=0;exitPerimeter=0;" edge="1" parent="1" source="_HtNcHazp8jYqS6eAKl7-1">
          <mxGeometry relative="1" as="geometry">
            <mxPoint x="109" y="377" as="targetPoint" />
          </mxGeometry>
        </mxCell>
        <mxCell id="_HtNcHazp8jYqS6eAKl7-27" style="edgeStyle=orthogonalEdgeStyle;rounded=0;orthogonalLoop=1;jettySize=auto;html=1;exitX=0;exitY=0.56;exitDx=0;exitDy=0;exitPerimeter=0;" edge="1" parent="1" source="_HtNcHazp8jYqS6eAKl7-1">
          <mxGeometry relative="1" as="geometry">
            <mxPoint x="109" y="393" as="targetPoint" />
          </mxGeometry>
        </mxCell>
        <mxCell id="_HtNcHazp8jYqS6eAKl7-28" style="edgeStyle=orthogonalEdgeStyle;rounded=0;orthogonalLoop=1;jettySize=auto;html=1;exitX=0;exitY=0.63;exitDx=0;exitDy=0;exitPerimeter=0;" edge="1" parent="1" source="_HtNcHazp8jYqS6eAKl7-1">
          <mxGeometry relative="1" as="geometry">
            <mxPoint x="109" y="412" as="targetPoint" />
          </mxGeometry>
        </mxCell>
        <mxCell id="_HtNcHazp8jYqS6eAKl7-29" style="edgeStyle=orthogonalEdgeStyle;rounded=0;orthogonalLoop=1;jettySize=auto;html=1;exitX=0;exitY=0.69;exitDx=0;exitDy=0;exitPerimeter=0;" edge="1" parent="1" source="_HtNcHazp8jYqS6eAKl7-1">
          <mxGeometry relative="1" as="geometry">
            <mxPoint x="109" y="428" as="targetPoint" />
          </mxGeometry>
        </mxCell>
        <mxCell id="_HtNcHazp8jYqS6eAKl7-39" style="edgeStyle=orthogonalEdgeStyle;rounded=0;orthogonalLoop=1;jettySize=auto;html=1;exitX=1;exitY=0.19;exitDx=0;exitDy=0;exitPerimeter=0;" edge="1" parent="1" source="_HtNcHazp8jYqS6eAKl7-1">
          <mxGeometry relative="1" as="geometry">
            <mxPoint x="269" y="293" as="targetPoint" />
          </mxGeometry>
        </mxCell>
        <mxCell id="_HtNcHazp8jYqS6eAKl7-40" style="edgeStyle=orthogonalEdgeStyle;rounded=0;orthogonalLoop=1;jettySize=auto;html=1;exitX=1;exitY=0.25;exitDx=0;exitDy=0;exitPerimeter=0;" edge="1" parent="1" source="_HtNcHazp8jYqS6eAKl7-1">
          <mxGeometry relative="1" as="geometry">
            <mxPoint x="269" y="310" as="targetPoint" />
          </mxGeometry>
        </mxCell>
        <mxCell id="_HtNcHazp8jYqS6eAKl7-41" style="edgeStyle=orthogonalEdgeStyle;rounded=0;orthogonalLoop=1;jettySize=auto;html=1;exitX=1;exitY=0.31;exitDx=0;exitDy=0;exitPerimeter=0;" edge="1" parent="1" source="_HtNcHazp8jYqS6eAKl7-1">
          <mxGeometry relative="1" as="geometry">
            <mxPoint x="269" y="326" as="targetPoint" />
          </mxGeometry>
        </mxCell>
        <mxCell id="_HtNcHazp8jYqS6eAKl7-42" style="edgeStyle=orthogonalEdgeStyle;rounded=0;orthogonalLoop=1;jettySize=auto;html=1;exitX=1;exitY=0.38;exitDx=0;exitDy=0;exitPerimeter=0;" edge="1" parent="1" source="_HtNcHazp8jYqS6eAKl7-1">
          <mxGeometry relative="1" as="geometry">
            <mxPoint x="269" y="345" as="targetPoint" />
          </mxGeometry>
        </mxCell>
        <mxCell id="_HtNcHazp8jYqS6eAKl7-45" style="edgeStyle=orthogonalEdgeStyle;rounded=0;orthogonalLoop=1;jettySize=auto;html=1;exitX=1;exitY=0.56;exitDx=0;exitDy=0;exitPerimeter=0;" edge="1" parent="1" source="_HtNcHazp8jYqS6eAKl7-1">
          <mxGeometry relative="1" as="geometry">
            <mxPoint x="269" y="393" as="targetPoint" />
          </mxGeometry>
        </mxCell>
        <mxCell id="_HtNcHazp8jYqS6eAKl7-46" style="edgeStyle=orthogonalEdgeStyle;rounded=0;orthogonalLoop=1;jettySize=auto;html=1;exitX=1;exitY=0.63;exitDx=0;exitDy=0;exitPerimeter=0;" edge="1" parent="1" source="_HtNcHazp8jYqS6eAKl7-1">
          <mxGeometry relative="1" as="geometry">
            <mxPoint x="269" y="412" as="targetPoint" />
          </mxGeometry>
        </mxCell>
        <mxCell id="_HtNcHazp8jYqS6eAKl7-47" style="edgeStyle=orthogonalEdgeStyle;rounded=0;orthogonalLoop=1;jettySize=auto;html=1;exitX=1;exitY=0.69;exitDx=0;exitDy=0;exitPerimeter=0;" edge="1" parent="1" source="_HtNcHazp8jYqS6eAKl7-1">
          <mxGeometry relative="1" as="geometry">
            <mxPoint x="269" y="428" as="targetPoint" />
          </mxGeometry>
        </mxCell>
        <mxCell id="_HtNcHazp8jYqS6eAKl7-48" style="edgeStyle=orthogonalEdgeStyle;rounded=0;orthogonalLoop=1;jettySize=auto;html=1;exitX=1;exitY=0.75;exitDx=0;exitDy=0;exitPerimeter=0;" edge="1" parent="1" source="_HtNcHazp8jYqS6eAKl7-1">
          <mxGeometry relative="1" as="geometry">
            <mxPoint x="269" y="445" as="targetPoint" />
          </mxGeometry>
        </mxCell>
        <mxCell id="_HtNcHazp8jYqS6eAKl7-49" style="edgeStyle=orthogonalEdgeStyle;rounded=0;orthogonalLoop=1;jettySize=auto;html=1;exitX=1;exitY=0.81;exitDx=0;exitDy=0;exitPerimeter=0;" edge="1" parent="1" source="_HtNcHazp8jYqS6eAKl7-1">
          <mxGeometry relative="1" as="geometry">
            <mxPoint x="269" y="461" as="targetPoint" />
          </mxGeometry>
        </mxCell>
        <mxCell id="_HtNcHazp8jYqS6eAKl7-1" value="" style="verticalLabelPosition=bottom;verticalAlign=top;html=1;shape=mxgraph.basic.patternFillRect;fillStyle=diag;step=5;fillStrokeWidth=0.2;fillStrokeColor=#dddddd;points=[[0,0.06,0,0,0],[0,0.13,0,0,0],[0,0.19,0,0,0],[0,0.25,0,0,0],[0,0.31,0,0,0],[0,0.38,0,0,0],[0,0.44,0,0,0],[0,0.5,0,0,0],[0,0.56,0,0,0],[0,0.63,0,0,0],[0,0.69,0,0,0],[0,0.75,0,0,0],[0,0.81,0,0,0],[0,0.88,0,0,0],[0,0.94,0,0,0],[1,0.06,0,0,0],[1,0.13,0,0,0],[1,0.19,0,0,0],[1,0.25,0,0,0],[1,0.31,0,0,0],[1,0.38,0,0,0],[1,0.44,0,0,0],[1,0.5,0,0,0],[1,0.56,0,0,0],[1,0.63,0,0,0],[1,0.69,0,0,0],[1,0.75,0,0,0],[1,0.81,0,0,0],[1,0.88,0,0,0],[1,0.94,0,0,0]];" vertex="1" parent="1">
          <mxGeometry x="129" y="242" width="120" height="270" as="geometry" />
        </mxCell>
        <UserObject label="&lt;span style=&quot;font-size: 6px;&quot;&gt;TX1&lt;/span&gt;" placeholders="1" name="Variable" id="_HtNcHazp8jYqS6eAKl7-56">
          <mxCell style="text;html=1;strokeColor=none;fillColor=none;align=center;verticalAlign=middle;whiteSpace=wrap;overflow=hidden;" vertex="1" parent="1">
            <mxGeometry x="119" y="246" width="39" height="20" as="geometry" />
          </mxCell>
        </UserObject>
        <UserObject label="&lt;span style=&quot;font-size: 6px;&quot;&gt;RXD&lt;/span&gt;&lt;span style=&quot;color: rgba(0, 0, 0, 0); font-family: monospace; font-size: 0px; text-align: start; text-wrap: nowrap;&quot;&gt;%3CmxGraphModel%3E%3Croot%3E%3CmxCell%20id%3D%220%22%2F%3E%3CmxCell%20id%3D%221%22%20parent%3D%220%22%2F%3E%3CUserObject%20label%3D%22%26lt%3Bspan%20style%3D%26quot%3Bfont-size%3A%206px%3B%26quot%3B%26gt%3BTX1%26lt%3B%2Fspan%26gt%3B%22%20placeholders%3D%221%22%20name%3D%22Variable%22%20id%3D%222%22%3E%3CmxCell%20style%3D%22text%3Bhtml%3D1%3BstrokeColor%3Dnone%3BfillColor%3Dnone%3Balign%3Dcenter%3BverticalAlign%3Dmiddle%3BwhiteSpace%3Dwrap%3Boverflow%3Dhidden%3B%22%20vertex%3D%221%22%20parent%3D%221%22%3E%3CmxGeometry%20x%3D%22320%22%20y%3D%22300%22%20width%3D%2260%22%20height%3D%2220%22%20as%3D%22geometry%22%2F%3E%3C%2FmxCell%3E%3C%2FUserObject%3E%3C%2Froot%3E%3C%2FmxGraphModel%3E&lt;/span&gt;" placeholders="1" name="Variable" id="_HtNcHazp8jYqS6eAKl7-57">
          <mxCell style="text;html=1;strokeColor=none;fillColor=none;align=center;verticalAlign=middle;whiteSpace=wrap;overflow=hidden;" vertex="1" parent="1">
            <mxGeometry x="119" y="266" width="40" height="20" as="geometry" />
          </mxCell>
        </UserObject>
        <UserObject label="&lt;span style=&quot;font-size: 6px;&quot;&gt;RST&lt;/span&gt;" placeholders="1" name="Variable" id="_HtNcHazp8jYqS6eAKl7-59">
          <mxCell style="text;html=1;strokeColor=none;fillColor=none;align=center;verticalAlign=middle;whiteSpace=wrap;overflow=hidden;" vertex="1" parent="1">
            <mxGeometry x="109" y="282" width="60" height="20" as="geometry" />
          </mxCell>
        </UserObject>
        <UserObject label="&lt;span style=&quot;font-size: 6px;&quot;&gt;GND&lt;/span&gt;" placeholders="1" name="Variable" id="_HtNcHazp8jYqS6eAKl7-60">
          <mxCell style="text;html=1;strokeColor=none;fillColor=none;align=center;verticalAlign=middle;whiteSpace=wrap;overflow=hidden;" vertex="1" parent="1">
            <mxGeometry x="109" y="299" width="60" height="20" as="geometry" />
          </mxCell>
        </UserObject>
        <UserObject label="&lt;span style=&quot;font-size: 6px;&quot;&gt;D2&lt;/span&gt;&lt;span style=&quot;color: rgba(0, 0, 0, 0); font-family: monospace; font-size: 0px; text-align: start; text-wrap: nowrap;&quot;&gt;%3CmxGraphModel%3E%3Croot%3E%3CmxCell%20id%3D%220%22%2F%3E%3CmxCell%20id%3D%221%22%20parent%3D%220%22%2F%3E%3CUserObject%20label%3D%22%26lt%3Bspan%20style%3D%26quot%3Bfont-size%3A%206px%3B%26quot%3B%26gt%3BTX1%26lt%3B%2Fspan%26gt%3B%22%20placeholders%3D%221%22%20name%3D%22Variable%22%20id%3D%222%22%3E%3CmxCell%20style%3D%22text%3Bhtml%3D1%3BstrokeColor%3Dnone%3BfillColor%3Dnone%3Balign%3Dcenter%3BverticalAlign%3Dmiddle%3BwhiteSpace%3Dwrap%3Boverflow%3Dhidden%3B%22%20vertex%3D%221%22%20parent%3D%221%22%3E%3CmxGeometry%20x%3D%22330%22%20y%3D%22294%22%20width%3D%2239%22%20height%3D%2220%22%20as%3D%22geometry%22%2F%3E%3C%2FmxCell%3E%3C%2FUserObject%3E%3C%2Froot%3E%3C%2FmxGraphModel%3E&lt;/span&gt;" placeholders="1" name="Variable" id="_HtNcHazp8jYqS6eAKl7-62">
          <mxCell style="text;html=1;strokeColor=none;fillColor=none;align=center;verticalAlign=middle;whiteSpace=wrap;overflow=hidden;" vertex="1" parent="1">
            <mxGeometry x="119.5" y="313" width="39" height="20" as="geometry" />
          </mxCell>
        </UserObject>
        <UserObject label="&lt;span style=&quot;font-size: 6px;&quot;&gt;D3&lt;/span&gt;&lt;span style=&quot;color: rgba(0, 0, 0, 0); font-family: monospace; font-size: 0px; text-align: start; text-wrap: nowrap;&quot;&gt;%3CmxGraphModel%3E%3Croot%3E%3CmxCell%20id%3D%220%22%2F%3E%3CmxCell%20id%3D%221%22%20parent%3D%220%22%2F%3E%3CUserObject%20label%3D%22%26lt%3Bspan%20style%3D%26quot%3Bfont-size%3A%206px%3B%26quot%3B%26gt%3BTX1%26lt%3B%2Fspan%26gt%3B%22%20placeholders%3D%221%22%20name%3D%22Variable%22%20id%3D%222%22%3E%3CmxCell%20style%3D%22text%3Bhtml%3D1%3BstrokeColor%3Dnone%3BfillColor%3Dnone%3Balign%3Dcenter%3BverticalAlign%3Dmiddle%3BwhiteSpace%3Dwrap%3Boverflow%3Dhidden%3B%22%20vertex%3D%221%22%20parent%3D%221%22%3E%3CmxGeometry%20x%3D%22330%22%20y%3D%22294%22%20width%3D%2239%22%20height%3D%2220%22%20as%3D%22geometry%22%2F%3E%3C%2FmxCell%3E%3C%2FUserObject%3E%3C%2Froot%3E%3C%2FmxGraphModel%3E&lt;/span&gt;" placeholders="1" name="Variable" id="_HtNcHazp8jYqS6eAKl7-63">
          <mxCell style="text;html=1;strokeColor=none;fillColor=none;align=center;verticalAlign=middle;whiteSpace=wrap;overflow=hidden;" vertex="1" parent="1">
            <mxGeometry x="120" y="333" width="39" height="20" as="geometry" />
          </mxCell>
        </UserObject>
        <UserObject label="&lt;span style=&quot;font-size: 6px;&quot;&gt;D4&lt;/span&gt;" placeholders="1" name="Variable" id="_HtNcHazp8jYqS6eAKl7-64">
          <mxCell style="text;html=1;strokeColor=none;fillColor=none;align=center;verticalAlign=middle;whiteSpace=wrap;overflow=hidden;" vertex="1" parent="1">
            <mxGeometry x="119.5" y="349" width="39" height="20" as="geometry" />
          </mxCell>
        </UserObject>
        <UserObject label="&lt;span style=&quot;font-size: 6px;&quot;&gt;D5&lt;/span&gt;" placeholders="1" name="Variable" id="_HtNcHazp8jYqS6eAKl7-65">
          <mxCell style="text;html=1;strokeColor=none;fillColor=none;align=center;verticalAlign=middle;whiteSpace=wrap;overflow=hidden;" vertex="1" parent="1">
            <mxGeometry x="119" y="365" width="39" height="20" as="geometry" />
          </mxCell>
        </UserObject>
        <UserObject label="&lt;span style=&quot;font-size: 6px;&quot;&gt;D6&lt;/span&gt;" placeholders="1" name="Variable" id="_HtNcHazp8jYqS6eAKl7-66">
          <mxCell style="text;html=1;strokeColor=none;fillColor=none;align=center;verticalAlign=middle;whiteSpace=wrap;overflow=hidden;" vertex="1" parent="1">
            <mxGeometry x="119" y="381" width="39" height="20" as="geometry" />
          </mxCell>
        </UserObject>
        <UserObject label="&lt;span style=&quot;font-size: 6px;&quot;&gt;D7&lt;/span&gt;" placeholders="1" name="Variable" id="_HtNcHazp8jYqS6eAKl7-67">
          <mxCell style="text;html=1;strokeColor=none;fillColor=none;align=center;verticalAlign=middle;whiteSpace=wrap;overflow=hidden;" vertex="1" parent="1">
            <mxGeometry x="120" y="401" width="39" height="20" as="geometry" />
          </mxCell>
        </UserObject>
        <UserObject label="&lt;span style=&quot;font-size: 6px;&quot;&gt;D8&lt;/span&gt;" placeholders="1" name="Variable" id="_HtNcHazp8jYqS6eAKl7-68">
          <mxCell style="text;html=1;strokeColor=none;fillColor=none;align=center;verticalAlign=middle;whiteSpace=wrap;overflow=hidden;" vertex="1" parent="1">
            <mxGeometry x="119" y="417" width="39" height="20" as="geometry" />
          </mxCell>
        </UserObject>
        <UserObject label="&lt;span style=&quot;font-size: 6px;&quot;&gt;D9&lt;/span&gt;" placeholders="1" name="Variable" id="_HtNcHazp8jYqS6eAKl7-69">
          <mxCell style="text;html=1;strokeColor=none;fillColor=none;align=center;verticalAlign=middle;whiteSpace=wrap;overflow=hidden;" vertex="1" parent="1">
            <mxGeometry x="120" y="433" width="39" height="20" as="geometry" />
          </mxCell>
        </UserObject>
        <UserObject label="&lt;span style=&quot;font-size: 6px;&quot;&gt;D10&lt;/span&gt;" placeholders="1" name="Variable" id="_HtNcHazp8jYqS6eAKl7-70">
          <mxCell style="text;html=1;strokeColor=none;fillColor=none;align=center;verticalAlign=middle;whiteSpace=wrap;overflow=hidden;" vertex="1" parent="1">
            <mxGeometry x="119" y="449" width="39" height="20" as="geometry" />
          </mxCell>
        </UserObject>
        <UserObject label="&lt;span style=&quot;font-size: 6px;&quot;&gt;D11&lt;/span&gt;" placeholders="1" name="Variable" id="_HtNcHazp8jYqS6eAKl7-71">
          <mxCell style="text;html=1;strokeColor=none;fillColor=none;align=center;verticalAlign=middle;whiteSpace=wrap;overflow=hidden;" vertex="1" parent="1">
            <mxGeometry x="119" y="469" width="39" height="20" as="geometry" />
          </mxCell>
        </UserObject>
        <UserObject label="&lt;span style=&quot;font-size: 6px;&quot;&gt;D12&lt;/span&gt;" placeholders="1" name="Variable" id="_HtNcHazp8jYqS6eAKl7-72">
          <mxCell style="text;html=1;strokeColor=none;fillColor=none;align=center;verticalAlign=middle;whiteSpace=wrap;overflow=hidden;" vertex="1" parent="1">
            <mxGeometry x="119" y="485" width="39" height="20" as="geometry" />
          </mxCell>
        </UserObject>
        <UserObject label="&lt;span style=&quot;font-size: 6px;&quot;&gt;VIN&lt;/span&gt;" placeholders="1" name="Variable" id="_HtNcHazp8jYqS6eAKl7-73">
          <mxCell style="text;html=1;strokeColor=none;fillColor=none;align=center;verticalAlign=middle;whiteSpace=wrap;overflow=hidden;" vertex="1" parent="1">
            <mxGeometry x="210" y="246" width="39" height="20" as="geometry" />
          </mxCell>
        </UserObject>
        <UserObject label="&lt;span style=&quot;font-size: 6px;&quot;&gt;GND&lt;/span&gt;" placeholders="1" name="Variable" id="_HtNcHazp8jYqS6eAKl7-74">
          <mxCell style="text;html=1;strokeColor=none;fillColor=none;align=center;verticalAlign=middle;whiteSpace=wrap;overflow=hidden;" vertex="1" parent="1">
            <mxGeometry x="210" y="266" width="39" height="20" as="geometry" />
          </mxCell>
        </UserObject>
        <UserObject label="&lt;span style=&quot;font-size: 6px;&quot;&gt;RST&lt;/span&gt;" placeholders="1" name="Variable" id="_HtNcHazp8jYqS6eAKl7-75">
          <mxCell style="text;html=1;strokeColor=none;fillColor=none;align=center;verticalAlign=middle;whiteSpace=wrap;overflow=hidden;" vertex="1" parent="1">
            <mxGeometry x="210" y="282" width="39" height="20" as="geometry" />
          </mxCell>
        </UserObject>
        <UserObject label="&lt;span style=&quot;font-size: 6px;&quot;&gt;5V&lt;/span&gt;" placeholders="1" name="Variable" id="_HtNcHazp8jYqS6eAKl7-76">
          <mxCell style="text;html=1;strokeColor=none;fillColor=none;align=center;verticalAlign=middle;whiteSpace=wrap;overflow=hidden;" vertex="1" parent="1">
            <mxGeometry x="210" y="299" width="39" height="20" as="geometry" />
          </mxCell>
        </UserObject>
        <UserObject label="&lt;span style=&quot;font-size: 6px;&quot;&gt;A7&lt;/span&gt;" placeholders="1" name="Variable" id="_HtNcHazp8jYqS6eAKl7-77">
          <mxCell style="text;html=1;strokeColor=none;fillColor=none;align=center;verticalAlign=middle;whiteSpace=wrap;overflow=hidden;" vertex="1" parent="1">
            <mxGeometry x="210" y="316" width="39" height="20" as="geometry" />
          </mxCell>
        </UserObject>
        <UserObject label="&lt;span style=&quot;font-size: 6px;&quot;&gt;A6&lt;/span&gt;" placeholders="1" name="Variable" id="_HtNcHazp8jYqS6eAKl7-79">
          <mxCell style="text;html=1;strokeColor=none;fillColor=none;align=center;verticalAlign=middle;whiteSpace=wrap;overflow=hidden;" vertex="1" parent="1">
            <mxGeometry x="210" y="333" width="39" height="20" as="geometry" />
          </mxCell>
        </UserObject>
        <UserObject label="&lt;span style=&quot;font-size: 6px;&quot;&gt;A5&lt;/span&gt;" placeholders="1" name="Variable" id="_HtNcHazp8jYqS6eAKl7-80">
          <mxCell style="text;html=1;strokeColor=none;fillColor=none;align=center;verticalAlign=middle;whiteSpace=wrap;overflow=hidden;" vertex="1" parent="1">
            <mxGeometry x="210" y="349" width="39" height="20" as="geometry" />
          </mxCell>
        </UserObject>
        <UserObject label="&lt;span style=&quot;font-size: 6px;&quot;&gt;A4&lt;/span&gt;" placeholders="1" name="Variable" id="_HtNcHazp8jYqS6eAKl7-81">
          <mxCell style="text;html=1;strokeColor=none;fillColor=none;align=center;verticalAlign=middle;whiteSpace=wrap;overflow=hidden;" vertex="1" parent="1">
            <mxGeometry x="210" y="365" width="39" height="20" as="geometry" />
          </mxCell>
        </UserObject>
        <UserObject label="&lt;span style=&quot;font-size: 6px;&quot;&gt;A3&lt;/span&gt;" placeholders="1" name="Variable" id="_HtNcHazp8jYqS6eAKl7-82">
          <mxCell style="text;html=1;strokeColor=none;fillColor=none;align=center;verticalAlign=middle;whiteSpace=wrap;overflow=hidden;" vertex="1" parent="1">
            <mxGeometry x="210" y="381" width="39" height="20" as="geometry" />
          </mxCell>
        </UserObject>
        <UserObject label="&lt;span style=&quot;font-size: 6px;&quot;&gt;A2&lt;/span&gt;" placeholders="1" name="Variable" id="_HtNcHazp8jYqS6eAKl7-83">
          <mxCell style="text;html=1;strokeColor=none;fillColor=none;align=center;verticalAlign=middle;whiteSpace=wrap;overflow=hidden;" vertex="1" parent="1">
            <mxGeometry x="210" y="401" width="39" height="20" as="geometry" />
          </mxCell>
        </UserObject>
        <UserObject label="&lt;span style=&quot;font-size: 6px;&quot;&gt;A1&lt;/span&gt;" placeholders="1" name="Variable" id="_HtNcHazp8jYqS6eAKl7-84">
          <mxCell style="text;html=1;strokeColor=none;fillColor=none;align=center;verticalAlign=middle;whiteSpace=wrap;overflow=hidden;" vertex="1" parent="1">
            <mxGeometry x="210" y="417" width="39" height="20" as="geometry" />
          </mxCell>
        </UserObject>
        <UserObject label="&lt;span style=&quot;font-size: 6px;&quot;&gt;A0&lt;/span&gt;" placeholders="1" name="Variable" id="_HtNcHazp8jYqS6eAKl7-85">
          <mxCell style="text;html=1;strokeColor=none;fillColor=none;align=center;verticalAlign=middle;whiteSpace=wrap;overflow=hidden;" vertex="1" parent="1">
            <mxGeometry x="210" y="433" width="39" height="20" as="geometry" />
          </mxCell>
        </UserObject>
        <UserObject label="&lt;span style=&quot;font-size: 6px;&quot;&gt;REF&lt;/span&gt;" placeholders="1" name="Variable" id="_HtNcHazp8jYqS6eAKl7-86">
          <mxCell style="text;html=1;strokeColor=none;fillColor=none;align=center;verticalAlign=middle;whiteSpace=wrap;overflow=hidden;" vertex="1" parent="1">
            <mxGeometry x="210" y="449" width="39" height="20" as="geometry" />
          </mxCell>
        </UserObject>
        <UserObject label="&lt;span style=&quot;font-size: 6px;&quot;&gt;3V3&lt;/span&gt;" placeholders="1" name="Variable" id="_HtNcHazp8jYqS6eAKl7-87">
          <mxCell style="text;html=1;strokeColor=none;fillColor=none;align=center;verticalAlign=middle;whiteSpace=wrap;overflow=hidden;" vertex="1" parent="1">
            <mxGeometry x="210" y="469" width="39" height="20" as="geometry" />
          </mxCell>
        </UserObject>
        <UserObject label="&lt;span style=&quot;font-size: 6px;&quot;&gt;D13&lt;/span&gt;" placeholders="1" name="Variable" id="_HtNcHazp8jYqS6eAKl7-88">
          <mxCell style="text;html=1;strokeColor=none;fillColor=none;align=center;verticalAlign=middle;whiteSpace=wrap;overflow=hidden;" vertex="1" parent="1">
            <mxGeometry x="210" y="485" width="39" height="20" as="geometry" />
          </mxCell>
        </UserObject>
        <mxCell id="_HtNcHazp8jYqS6eAKl7-89" value="&lt;font style=&quot;font-size: 17px;&quot;&gt;Arduino&lt;/font&gt;" style="text;strokeColor=none;fillColor=none;html=1;fontSize=24;fontStyle=1;verticalAlign=middle;align=center;" vertex="1" parent="1">
          <mxGeometry x="136" y="498" width="100" height="40" as="geometry" />
        </mxCell>
        <mxCell id="_HtNcHazp8jYqS6eAKl7-92" style="edgeStyle=orthogonalEdgeStyle;rounded=0;orthogonalLoop=1;jettySize=auto;html=1;exitX=0;exitY=0.25;exitDx=0;exitDy=0;exitPerimeter=0;entryX=1;entryY=0.5;entryDx=0;entryDy=0;fillColor=#f5f5f5;strokeColor=#666666;" edge="1" parent="1" source="_HtNcHazp8jYqS6eAKl7-90" target="_HtNcHazp8jYqS6eAKl7-74">
          <mxGeometry relative="1" as="geometry">
            <mxPoint x="267.7931034482758" y="279.1379310344828" as="targetPoint" />
            <Array as="points">
              <mxPoint x="308" y="314" />
              <mxPoint x="308" y="279" />
              <mxPoint x="249" y="279" />
            </Array>
          </mxGeometry>
        </mxCell>
        <mxCell id="_HtNcHazp8jYqS6eAKl7-94" style="edgeStyle=orthogonalEdgeStyle;rounded=0;orthogonalLoop=1;jettySize=auto;html=1;exitX=0;exitY=0.5;exitDx=0;exitDy=0;exitPerimeter=0;entryX=0;entryY=0.5;entryDx=0;entryDy=0;fillColor=#d5e8d4;strokeColor=#82b366;" edge="1" parent="1" source="_HtNcHazp8jYqS6eAKl7-110" target="_HtNcHazp8jYqS6eAKl7-69">
          <mxGeometry relative="1" as="geometry">
            <mxPoint x="35" y="427" as="targetPoint" />
            <Array as="points">
              <mxPoint x="100" y="214" />
              <mxPoint x="100" y="443" />
            </Array>
          </mxGeometry>
        </mxCell>
        <mxCell id="_HtNcHazp8jYqS6eAKl7-96" style="edgeStyle=orthogonalEdgeStyle;rounded=0;orthogonalLoop=1;jettySize=auto;html=1;entryX=1;entryY=0.5;entryDx=0;entryDy=0;fillColor=#f8cecc;strokeColor=#b85450;exitX=0;exitY=0.75;exitDx=0;exitDy=0;exitPerimeter=0;" edge="1" parent="1" source="_HtNcHazp8jYqS6eAKl7-90" target="_HtNcHazp8jYqS6eAKl7-73">
          <mxGeometry relative="1" as="geometry">
            <mxPoint x="289" y="482" as="targetPoint" />
            <mxPoint x="495" y="363" as="sourcePoint" />
            <Array as="points">
              <mxPoint x="466" y="354" />
              <mxPoint x="466" y="256" />
            </Array>
          </mxGeometry>
        </mxCell>
        <mxCell id="_HtNcHazp8jYqS6eAKl7-90" value="" style="shape=ext;double=1;whiteSpace=wrap;html=1;aspect=fixed;points=[[0,0.25,0,0,0],[0,0.5,0,0,0],[0,0.75,0,0,0]];" vertex="1" parent="1">
          <mxGeometry x="526" y="294" width="80" height="80" as="geometry" />
        </mxCell>
        <UserObject label="&lt;span style=&quot;font-size: 6px;&quot;&gt;GND&lt;/span&gt;" placeholders="1" name="Variable" id="_HtNcHazp8jYqS6eAKl7-91">
          <mxCell style="text;html=1;strokeColor=none;fillColor=none;align=center;verticalAlign=middle;whiteSpace=wrap;overflow=hidden;" vertex="1" parent="1">
            <mxGeometry x="520" y="302" width="39" height="20" as="geometry" />
          </mxCell>
        </UserObject>
        <UserObject label="&lt;span style=&quot;font-size: 6px;&quot;&gt;PWM&lt;/span&gt;" placeholders="1" name="Variable" id="_HtNcHazp8jYqS6eAKl7-93">
          <mxCell style="text;html=1;strokeColor=none;fillColor=none;align=center;verticalAlign=middle;whiteSpace=wrap;overflow=hidden;" vertex="1" parent="1">
            <mxGeometry x="518" y="327" width="39" height="20" as="geometry" />
          </mxCell>
        </UserObject>
        <UserObject label="&lt;span style=&quot;font-size: 6px;&quot;&gt;3.3V&lt;/span&gt;" placeholders="1" name="Variable" id="_HtNcHazp8jYqS6eAKl7-95">
          <mxCell style="text;html=1;strokeColor=none;fillColor=none;align=center;verticalAlign=middle;whiteSpace=wrap;overflow=hidden;" vertex="1" parent="1">
            <mxGeometry x="524" y="342" width="39" height="20" as="geometry" />
          </mxCell>
        </UserObject>
        <mxCell id="_HtNcHazp8jYqS6eAKl7-97" value="&lt;font style=&quot;font-size: 17px;&quot;&gt;Servo&lt;/font&gt;" style="text;strokeColor=none;fillColor=none;html=1;fontSize=24;fontStyle=1;verticalAlign=middle;align=center;" vertex="1" parent="1">
          <mxGeometry x="516" y="362" width="100" height="40" as="geometry" />
        </mxCell>
        <mxCell id="_HtNcHazp8jYqS6eAKl7-102" style="edgeStyle=orthogonalEdgeStyle;rounded=0;orthogonalLoop=1;jettySize=auto;html=1;exitX=0;exitY=0.2;exitDx=0;exitDy=0;exitPerimeter=0;entryX=1;entryY=0.5;entryDx=0;entryDy=0;fillColor=#f8cecc;strokeColor=#b85450;" edge="1" parent="1" source="_HtNcHazp8jYqS6eAKl7-98" target="_HtNcHazp8jYqS6eAKl7-73">
          <mxGeometry relative="1" as="geometry">
            <Array as="points">
              <mxPoint x="425" y="447" />
              <mxPoint x="425" y="256" />
            </Array>
          </mxGeometry>
        </mxCell>
        <mxCell id="_HtNcHazp8jYqS6eAKl7-104" style="edgeStyle=orthogonalEdgeStyle;rounded=0;orthogonalLoop=1;jettySize=auto;html=1;exitX=0;exitY=0.4;exitDx=0;exitDy=0;exitPerimeter=0;entryX=1;entryY=0.75;entryDx=0;entryDy=0;fillColor=#f5f5f5;strokeColor=#666666;" edge="1" parent="1" source="_HtNcHazp8jYqS6eAKl7-98" target="_HtNcHazp8jYqS6eAKl7-74">
          <mxGeometry relative="1" as="geometry">
            <Array as="points">
              <mxPoint x="408" y="462" />
              <mxPoint x="408" y="281" />
            </Array>
          </mxGeometry>
        </mxCell>
        <mxCell id="_HtNcHazp8jYqS6eAKl7-106" style="edgeStyle=orthogonalEdgeStyle;rounded=0;orthogonalLoop=1;jettySize=auto;html=1;exitX=0;exitY=0.6;exitDx=0;exitDy=0;exitPerimeter=0;entryX=1;entryY=0.5;entryDx=0;entryDy=0;" edge="1" parent="1" source="_HtNcHazp8jYqS6eAKl7-98" target="_HtNcHazp8jYqS6eAKl7-80">
          <mxGeometry relative="1" as="geometry">
            <mxPoint x="360" y="415" as="targetPoint" />
            <Array as="points">
              <mxPoint x="355" y="477" />
              <mxPoint x="355" y="359" />
            </Array>
          </mxGeometry>
        </mxCell>
        <mxCell id="_HtNcHazp8jYqS6eAKl7-108" style="edgeStyle=orthogonalEdgeStyle;rounded=0;orthogonalLoop=1;jettySize=auto;html=1;exitX=0;exitY=0.8;exitDx=0;exitDy=0;exitPerimeter=0;entryX=1;entryY=0.5;entryDx=0;entryDy=0;" edge="1" parent="1" source="_HtNcHazp8jYqS6eAKl7-98" target="_HtNcHazp8jYqS6eAKl7-81">
          <mxGeometry relative="1" as="geometry">
            <Array as="points">
              <mxPoint x="376" y="492" />
              <mxPoint x="376" y="375" />
            </Array>
          </mxGeometry>
        </mxCell>
        <mxCell id="_HtNcHazp8jYqS6eAKl7-98" value="" style="rounded=0;whiteSpace=wrap;html=1;points=[[0,0.2,0,0,0],[0,0.4,0,0,0],[0,0.6,0,0,0],[0,0.8,0,0,0]];" vertex="1" parent="1">
          <mxGeometry x="526" y="432" width="78" height="75" as="geometry" />
        </mxCell>
        <UserObject label="&lt;span style=&quot;font-size: 6px;&quot;&gt;VIN&lt;/span&gt;" placeholders="1" name="Variable" id="_HtNcHazp8jYqS6eAKl7-103">
          <mxCell style="text;html=1;strokeColor=none;fillColor=none;align=center;verticalAlign=middle;whiteSpace=wrap;overflow=hidden;" vertex="1" parent="1">
            <mxGeometry x="516" y="437" width="39" height="20" as="geometry" />
          </mxCell>
        </UserObject>
        <UserObject label="&lt;span style=&quot;font-size: 6px;&quot;&gt;GND&lt;/span&gt;" placeholders="1" name="Variable" id="_HtNcHazp8jYqS6eAKl7-105">
          <mxCell style="text;html=1;strokeColor=none;fillColor=none;align=center;verticalAlign=middle;whiteSpace=wrap;overflow=hidden;" vertex="1" parent="1">
            <mxGeometry x="516" y="449" width="39" height="20" as="geometry" />
          </mxCell>
        </UserObject>
        <UserObject label="&lt;span style=&quot;font-size: 6px;&quot;&gt;SCL&lt;/span&gt;" placeholders="1" name="Variable" id="_HtNcHazp8jYqS6eAKl7-107">
          <mxCell style="text;html=1;strokeColor=none;fillColor=none;align=center;verticalAlign=middle;whiteSpace=wrap;overflow=hidden;" vertex="1" parent="1">
            <mxGeometry x="516" y="465" width="39" height="20" as="geometry" />
          </mxCell>
        </UserObject>
        <UserObject label="&lt;span style=&quot;font-size: 6px;&quot;&gt;SDA&lt;/span&gt;" placeholders="1" name="Variable" id="_HtNcHazp8jYqS6eAKl7-109">
          <mxCell style="text;html=1;strokeColor=none;fillColor=none;align=center;verticalAlign=middle;whiteSpace=wrap;overflow=hidden;" vertex="1" parent="1">
            <mxGeometry x="516" y="482" width="39" height="20" as="geometry" />
          </mxCell>
        </UserObject>
        <mxCell id="_HtNcHazp8jYqS6eAKl7-111" value="" style="edgeStyle=orthogonalEdgeStyle;rounded=0;orthogonalLoop=1;jettySize=auto;html=1;exitX=0;exitY=0.5;exitDx=0;exitDy=0;exitPerimeter=0;entryX=0;entryY=0.5;entryDx=0;entryDy=0;fillColor=#d5e8d4;strokeColor=#82b366;" edge="1" parent="1" source="_HtNcHazp8jYqS6eAKl7-90" target="_HtNcHazp8jYqS6eAKl7-110">
          <mxGeometry relative="1" as="geometry">
            <mxPoint x="120" y="443" as="targetPoint" />
            <mxPoint x="526" y="334" as="sourcePoint" />
            <Array as="points">
              <mxPoint x="507" y="334" />
              <mxPoint x="507" y="214" />
            </Array>
          </mxGeometry>
        </mxCell>
        <UserObject label="&lt;font style=&quot;font-size: 7px;&quot;&gt;Can go to any D pin&lt;/font&gt;" placeholders="1" name="Variable" id="_HtNcHazp8jYqS6eAKl7-110">
          <mxCell style="text;html=1;strokeColor=none;fillColor=none;align=center;verticalAlign=middle;whiteSpace=wrap;overflow=hidden;" vertex="1" parent="1">
            <mxGeometry x="307" y="196" width="80" height="20" as="geometry" />
          </mxCell>
        </UserObject>
        <mxCell id="_HtNcHazp8jYqS6eAKl7-112" value="&lt;font style=&quot;font-size: 17px;&quot;&gt;BMP 180&lt;/font&gt;" style="text;strokeColor=none;fillColor=none;html=1;fontSize=24;fontStyle=1;verticalAlign=middle;align=center;" vertex="1" parent="1">
          <mxGeometry x="512" y="494" width="100" height="40" as="geometry" />
        </mxCell>
        <mxCell id="_HtNcHazp8jYqS6eAKl7-116" style="edgeStyle=orthogonalEdgeStyle;rounded=0;orthogonalLoop=1;jettySize=auto;html=1;exitX=0;exitY=0.17;exitDx=0;exitDy=0;exitPerimeter=0;entryX=1;entryY=0.5;entryDx=0;entryDy=0;fillColor=#f5f5f5;strokeColor=#666666;" edge="1" parent="1" source="_HtNcHazp8jYqS6eAKl7-115" target="_HtNcHazp8jYqS6eAKl7-74">
          <mxGeometry relative="1" as="geometry" />
        </mxCell>
        <mxCell id="_HtNcHazp8jYqS6eAKl7-118" style="edgeStyle=orthogonalEdgeStyle;rounded=0;orthogonalLoop=1;jettySize=auto;html=1;exitX=0;exitY=0.33;exitDx=0;exitDy=0;exitPerimeter=0;entryX=0;entryY=0.5;entryDx=0;entryDy=0;" edge="1" parent="1" source="_HtNcHazp8jYqS6eAKl7-115" target="_HtNcHazp8jYqS6eAKl7-72">
          <mxGeometry relative="1" as="geometry">
            <mxPoint x="87.10344827586209" y="545.344827586207" as="targetPoint" />
          </mxGeometry>
        </mxCell>
        <mxCell id="_HtNcHazp8jYqS6eAKl7-120" style="edgeStyle=orthogonalEdgeStyle;rounded=0;orthogonalLoop=1;jettySize=auto;html=1;exitX=0;exitY=0.5;exitDx=0;exitDy=0;exitPerimeter=0;entryX=1;entryY=0.5;entryDx=0;entryDy=0;" edge="1" parent="1" source="_HtNcHazp8jYqS6eAKl7-115" target="_HtNcHazp8jYqS6eAKl7-88">
          <mxGeometry relative="1" as="geometry">
            <mxPoint x="273" y="518" as="targetPoint" />
            <Array as="points">
              <mxPoint x="293" y="603" />
              <mxPoint x="293" y="495" />
            </Array>
          </mxGeometry>
        </mxCell>
        <mxCell id="_HtNcHazp8jYqS6eAKl7-122" style="edgeStyle=orthogonalEdgeStyle;rounded=0;orthogonalLoop=1;jettySize=auto;html=1;exitX=0;exitY=0.67;exitDx=0;exitDy=0;exitPerimeter=0;entryX=0;entryY=0.5;entryDx=0;entryDy=0;" edge="1" parent="1" source="_HtNcHazp8jYqS6eAKl7-115" target="_HtNcHazp8jYqS6eAKl7-71">
          <mxGeometry relative="1" as="geometry">
            <Array as="points">
              <mxPoint x="78" y="619" />
              <mxPoint x="78" y="479" />
            </Array>
          </mxGeometry>
        </mxCell>
        <mxCell id="_HtNcHazp8jYqS6eAKl7-124" style="edgeStyle=orthogonalEdgeStyle;rounded=0;orthogonalLoop=1;jettySize=auto;html=1;exitX=0;exitY=0.83;exitDx=0;exitDy=0;exitPerimeter=0;entryX=0;entryY=0.5;entryDx=0;entryDy=0;" edge="1" parent="1" source="_HtNcHazp8jYqS6eAKl7-115" target="_HtNcHazp8jYqS6eAKl7-70">
          <mxGeometry relative="1" as="geometry">
            <Array as="points">
              <mxPoint x="59" y="633" />
              <mxPoint x="59" y="459" />
            </Array>
          </mxGeometry>
        </mxCell>
        <mxCell id="_HtNcHazp8jYqS6eAKl7-125" style="edgeStyle=orthogonalEdgeStyle;rounded=0;orthogonalLoop=1;jettySize=auto;html=1;exitX=0;exitY=0.91;exitDx=0;exitDy=0;exitPerimeter=0;entryX=1;entryY=0.25;entryDx=0;entryDy=0;fillColor=#e1d5e7;strokeColor=#9673a6;" edge="1" parent="1" source="_HtNcHazp8jYqS6eAKl7-115" target="_HtNcHazp8jYqS6eAKl7-87">
          <mxGeometry relative="1" as="geometry">
            <mxPoint x="312.62068965517255" y="673.6206896551726" as="targetPoint" />
            <Array as="points">
              <mxPoint x="315" y="637" />
              <mxPoint x="315" y="474" />
            </Array>
          </mxGeometry>
        </mxCell>
        <mxCell id="_HtNcHazp8jYqS6eAKl7-115" value="" style="rounded=0;whiteSpace=wrap;html=1;points=[[0,0.17,0,0,0],[0,0.33,0,0,0],[0,0.5,0,0,0],[0,0.67,0,0,0],[0,0.8,0,0,0],[0,0.91,0,0,0]];" vertex="1" parent="1">
          <mxGeometry x="403" y="556" width="87" height="89" as="geometry" />
        </mxCell>
        <UserObject label="&lt;span style=&quot;font-size: 6px;&quot;&gt;GND&lt;/span&gt;" placeholders="1" name="Variable" id="_HtNcHazp8jYqS6eAKl7-117">
          <mxCell style="text;html=1;strokeColor=none;fillColor=none;align=center;verticalAlign=middle;whiteSpace=wrap;overflow=hidden;" vertex="1" parent="1">
            <mxGeometry x="394" y="564" width="39" height="20" as="geometry" />
          </mxCell>
        </UserObject>
        <UserObject label="&lt;span style=&quot;font-size: 6px;&quot;&gt;MISO&lt;/span&gt;" placeholders="1" name="Variable" id="_HtNcHazp8jYqS6eAKl7-119">
          <mxCell style="text;html=1;strokeColor=none;fillColor=none;align=center;verticalAlign=middle;whiteSpace=wrap;overflow=hidden;" vertex="1" parent="1">
            <mxGeometry x="394" y="579" width="39" height="20" as="geometry" />
          </mxCell>
        </UserObject>
        <UserObject label="&lt;span style=&quot;font-size: 6px;&quot;&gt;CLK&lt;/span&gt;" placeholders="1" name="Variable" id="_HtNcHazp8jYqS6eAKl7-121">
          <mxCell style="text;html=1;strokeColor=none;fillColor=none;align=center;verticalAlign=middle;whiteSpace=wrap;overflow=hidden;" vertex="1" parent="1">
            <mxGeometry x="396" y="593.5" width="39" height="20" as="geometry" />
          </mxCell>
        </UserObject>
        <UserObject label="&lt;span style=&quot;font-size: 6px;&quot;&gt;MOSI&lt;/span&gt;" placeholders="1" name="Variable" id="_HtNcHazp8jYqS6eAKl7-123">
          <mxCell style="text;html=1;strokeColor=none;fillColor=none;align=center;verticalAlign=middle;whiteSpace=wrap;overflow=hidden;" vertex="1" parent="1">
            <mxGeometry x="396" y="608" width="39" height="20" as="geometry" />
          </mxCell>
        </UserObject>
        <UserObject label="&lt;span style=&quot;font-size: 6px;&quot;&gt;CS&lt;/span&gt;" placeholders="1" name="Variable" id="_HtNcHazp8jYqS6eAKl7-126">
          <mxCell style="text;html=1;strokeColor=none;fillColor=none;align=center;verticalAlign=middle;whiteSpace=wrap;overflow=hidden;" vertex="1" parent="1">
            <mxGeometry x="394" y="617" width="39" height="20" as="geometry" />
          </mxCell>
        </UserObject>
        <UserObject label="&lt;span style=&quot;font-size: 6px;&quot;&gt;3v3&lt;/span&gt;" placeholders="1" name="Variable" id="_HtNcHazp8jYqS6eAKl7-127">
          <mxCell style="text;html=1;strokeColor=none;fillColor=none;align=center;verticalAlign=middle;whiteSpace=wrap;overflow=hidden;" vertex="1" parent="1">
            <mxGeometry x="394" y="628" width="39" height="20" as="geometry" />
          </mxCell>
        </UserObject>
        <mxCell id="_HtNcHazp8jYqS6eAKl7-128" value="&lt;font style=&quot;font-size: 17px;&quot;&gt;Micro SD Card Reader&lt;/font&gt;" style="text;strokeColor=none;fillColor=none;html=1;fontSize=24;fontStyle=1;verticalAlign=middle;align=center;" vertex="1" parent="1">
          <mxGeometry x="396.5" y="634" width="100" height="40" as="geometry" />
        </mxCell>
      </root>
    </mxGraphModel>
  </diagram>
</mxfile>
